<svg width="15" height="18" viewBox="0 0 15 18" fill="none" xmlns="http://www.w3.org/2000/svg">
<path d="M14.7038 13.5346C14.4478 14.1261 14.1447 14.6705 13.7936 15.171C13.315 15.8534 12.9232 16.3257 12.6212 16.588C12.1531 17.0185 11.6515 17.239 11.1144 17.2515C10.7288 17.2515 10.2638 17.1418 9.72248 16.9192C9.17942 16.6977 8.68035 16.588 8.22401 16.588C7.74542 16.588 7.23214 16.6977 6.68312 16.9192C6.13326 17.1418 5.69031 17.2578 5.35164 17.2693C4.83658 17.2912 4.32319 17.0645 3.81074 16.588C3.48367 16.3027 3.07457 15.8137 2.58448 15.1208C2.05866 14.381 1.62636 13.5231 1.28769 12.545C0.924987 11.4886 0.743164 10.4656 0.743164 9.47516C0.743164 8.34065 0.988311 7.36215 1.47934 6.54217C1.86524 5.88354 2.37863 5.36398 3.02117 4.98257C3.66372 4.60117 4.35799 4.4068 5.10565 4.39437C5.51475 4.39437 6.05124 4.52091 6.71792 4.76961C7.38272 5.01915 7.80958 5.14569 7.99674 5.14569C8.13666 5.14569 8.61086 4.99773 9.41474 4.70273C10.175 4.42917 10.8166 4.31589 11.3422 4.36051C12.7664 4.47546 13.8365 5.03691 14.5481 6.04843C13.2743 6.82024 12.6442 7.90124 12.6567 9.288C12.6682 10.3682 13.0601 11.267 13.8302 11.9808C14.1792 12.312 14.569 12.568 15.0027 12.7498C14.9086 13.0226 14.8093 13.2838 14.7038 13.5346V13.5346ZM11.4373 0.680592C11.4373 1.52723 11.128 2.31773 10.5114 3.0494C9.76742 3.91923 8.8675 4.42185 7.89161 4.34254C7.87918 4.24097 7.87197 4.13407 7.87197 4.02174C7.87197 3.20897 8.22579 2.33915 8.85412 1.62795C9.16782 1.26786 9.56679 0.968446 10.0506 0.7296C10.5334 0.494317 10.99 0.364201 11.4195 0.341919C11.432 0.455101 11.4373 0.56829 11.4373 0.680581V0.680592Z" fill="white"/>
</svg>
