<svg width="18" height="19" viewBox="0 0 18 19" fill="none" xmlns="http://www.w3.org/2000/svg">
<rect width="17.6649" height="17.6649" transform="translate(0.0405273 0.507095)" fill="#F8F7F7"/>
<path fill-rule="evenodd" clip-rule="evenodd" d="M16.9989 9.53189C16.9989 8.93169 16.945 8.35457 16.845 7.80054H8.87305V11.0747H13.4284C13.2322 12.1328 12.6359 13.0292 11.7394 13.6294V15.7532H14.4749C16.0755 14.2797 16.9989 12.1097 16.9989 9.53189Z" fill="#4285F4"/>
<path fill-rule="evenodd" clip-rule="evenodd" d="M8.8727 17.8038C11.1581 17.8038 13.0741 17.0459 14.4746 15.7531L11.7391 13.6293C10.9811 14.1372 10.0116 14.4373 8.8727 14.4373C6.66811 14.4373 4.80209 12.9483 4.13648 10.9476H1.30859V13.1407C2.70137 15.907 5.56389 17.8038 8.8727 17.8038Z" fill="#34A853"/>
<path fill-rule="evenodd" clip-rule="evenodd" d="M4.13688 10.9478C3.96759 10.4399 3.87141 9.89744 3.87141 9.33956C3.87141 8.78168 3.96759 8.23919 4.13688 7.73132V5.53827H1.309C0.735726 6.68096 0.408691 7.97371 0.408691 9.33956C0.408691 10.7054 0.735726 11.9982 1.309 13.1409L4.13688 10.9478Z" fill="#FBBC05"/>
<path fill-rule="evenodd" clip-rule="evenodd" d="M8.8727 4.24163C10.1154 4.24163 11.2312 4.6687 12.1084 5.50745L14.5362 3.0797C13.0703 1.71385 11.1542 0.875107 8.8727 0.875107C5.56389 0.875107 2.70137 2.7719 1.30859 5.53823L4.13648 7.73128C4.80209 5.7306 6.66811 4.24163 8.8727 4.24163Z" fill="#EA4335"/>
</svg>
