<svg width="18" height="24" viewBox="0 0 18 24" fill="none" xmlns="http://www.w3.org/2000/svg">
<path d="M8.99389 17.792C8.41389 17.792 7.85765 17.5616 7.44753 17.1515C7.03741 16.7413 6.807 16.1851 6.807 15.6051C6.807 14.3914 7.78017 13.4182 8.99389 13.4182C9.57389 13.4182 10.1301 13.6486 10.5403 14.0587C10.9504 14.4689 11.1808 15.0251 11.1808 15.6051C11.1808 16.1851 10.9504 16.7413 10.5403 17.1515C10.1301 17.5616 9.57389 17.792 8.99389 17.792ZM15.5546 21.0723V10.1379H2.43323V21.0723H15.5546ZM15.5546 7.95098C16.1346 7.95098 16.6908 8.18139 17.1009 8.59151C17.511 9.00163 17.7414 9.55787 17.7414 10.1379V21.0723C17.7414 21.6523 17.511 22.2086 17.1009 22.6187C16.6908 23.0288 16.1346 23.2592 15.5546 23.2592H2.43323C1.85323 23.2592 1.29698 23.0288 0.886863 22.6187C0.476741 22.2086 0.246338 21.6523 0.246338 21.0723V10.1379C0.246338 8.92415 1.2195 7.95098 2.43323 7.95098H3.52667V5.7641C3.52667 4.3141 4.10268 2.92349 5.12798 1.89819C6.15329 0.872884 7.54389 0.296875 8.99389 0.296875C9.71186 0.296875 10.4228 0.438289 11.0861 0.713042C11.7494 0.987796 12.3521 1.39051 12.8598 1.89819C13.3675 2.40587 13.7702 3.00857 14.0449 3.67188C14.3197 4.33519 14.4611 5.04613 14.4611 5.7641V7.95098H15.5546ZM8.99389 2.48376C8.12389 2.48376 7.28953 2.82937 6.67435 3.44455C6.05916 4.05973 5.71356 4.8941 5.71356 5.7641V7.95098H12.2742V5.7641C12.2742 4.8941 11.9286 4.05973 11.3134 3.44455C10.6983 2.82937 9.86389 2.48376 8.99389 2.48376Z" fill="#505050"/>
</svg>
