<svg width="17" height="12" viewBox="0 0 17 12" fill="none" xmlns="http://www.w3.org/2000/svg">
<path d="M16.813 5.83137C16.7891 5.77738 16.2102 4.49327 14.9234 3.20642C13.2087 1.49176 11.043 0.585571 8.65932 0.585571C6.27561 0.585571 4.10991 1.49176 2.39525 3.20642C1.10841 4.49327 0.52683 5.77943 0.505644 5.83137C0.474559 5.90129 0.458496 5.97696 0.458496 6.05348C0.458496 6.12999 0.474559 6.20566 0.505644 6.27558C0.529563 6.32957 1.10841 7.613 2.39525 8.89985C4.10991 10.6138 6.27561 11.52 8.65932 11.52C11.043 11.52 13.2087 10.6138 14.9234 8.89985C16.2102 7.613 16.7891 6.32957 16.813 6.27558C16.8441 6.20566 16.8601 6.12999 16.8601 6.05348C16.8601 5.97696 16.8441 5.90129 16.813 5.83137ZM8.65932 10.4266C6.55581 10.4266 4.71814 9.66184 3.19688 8.15426C2.5727 7.53352 2.04165 6.82569 1.62027 6.05279C2.04154 5.27982 2.57259 4.57198 3.19688 3.95133C4.71814 2.44374 6.55581 1.67902 8.65932 1.67902C10.7628 1.67902 12.6005 2.44374 14.1218 3.95133C14.7472 4.57183 15.2794 5.27967 15.7018 6.05279C15.2091 6.97265 13.0625 10.4266 8.65932 10.4266ZM8.65932 2.77246C8.01053 2.77246 7.37631 2.96485 6.83687 3.3253C6.29742 3.68574 5.87697 4.19806 5.62869 4.79746C5.38041 5.39687 5.31545 6.05643 5.44202 6.69275C5.56859 7.32908 5.88101 7.91358 6.33978 8.37234C6.79854 8.8311 7.38304 9.14352 8.01936 9.27009C8.65568 9.39667 9.31525 9.33171 9.91465 9.08342C10.5141 8.83514 11.0264 8.4147 11.3868 7.87525C11.7473 7.3358 11.9397 6.70158 11.9397 6.05279C11.9387 5.18307 11.5929 4.34923 10.9779 3.73425C10.3629 3.11926 9.52904 2.77336 8.65932 2.77246ZM8.65932 8.23968C8.2268 8.23968 7.80398 8.11142 7.44435 7.87112C7.08472 7.63083 6.80442 7.28928 6.6389 6.88968C6.47338 6.49008 6.43007 6.05037 6.51445 5.62615C6.59883 5.20194 6.80712 4.81227 7.11296 4.50643C7.4188 4.20059 7.80847 3.99231 8.23268 3.90792C8.6569 3.82354 9.09661 3.86685 9.49621 4.03237C9.89581 4.19789 10.2374 4.47819 10.4777 4.83782C10.718 5.19745 10.8462 5.62027 10.8462 6.05279C10.8462 6.63279 10.6158 7.18903 10.2057 7.59916C9.79556 8.00928 9.23932 8.23968 8.65932 8.23968Z" fill="black" fill-opacity="0.7"/>
</svg>
