<svg width="23" height="28" viewBox="0 0 23 28" fill="none" xmlns="http://www.w3.org/2000/svg">
<path fill-rule="evenodd" clip-rule="evenodd" d="M6.24487 2.48013C6.24487 1.90134 6.71408 1.43213 7.29287 1.43213H13.984L21.723 9.17121V20.6992C21.723 21.278 21.2538 21.7472 20.675 21.7472H7.29287C6.71408 21.7472 6.24487 21.278 6.24487 20.6992V2.48013Z" fill="white" stroke="black" stroke-width="1.572" stroke-linejoin="round"/>
<path d="M13.984 1.43213V9.17121H21.7231" stroke="black" stroke-width="1.572" stroke-linejoin="round"/>
<path fill-rule="evenodd" clip-rule="evenodd" d="M1.40796 7.31656C1.40796 6.73776 1.87716 6.26855 2.45596 6.26855H9.14704L16.8861 14.0076V25.5356C16.8861 26.1144 16.4169 26.5836 15.8381 26.5836H2.45596C1.87717 26.5836 1.40796 26.1144 1.40796 25.5356V7.31656Z" fill="white" stroke="black" stroke-width="1.572" stroke-linejoin="round"/>
<path d="M9.14709 6.26855V14.0076H16.8862" stroke="black" stroke-width="1.572" stroke-linejoin="round"/>
</svg>
