<svg width="34" height="14" viewBox="0 0 34 14" fill="none" xmlns="http://www.w3.org/2000/svg">
<path fill-rule="evenodd" clip-rule="evenodd" d="M15.185 5.8401C14.5781 2.85036 11.9348 0.600098 8.766 0.600098C5.59716 0.600098 2.9539 2.85036 2.34702 5.8401H0.905995C0.471899 5.8401 0.119995 6.192 0.119995 6.6261C0.119995 7.06019 0.471899 7.4121 0.905995 7.4121H2.22114C2.35866 10.9081 5.23628 13.7001 8.766 13.7001C12.2957 13.7001 15.1733 10.9081 15.3109 7.4121H17.9411C18.0787 10.9081 20.9563 13.7001 24.486 13.7001C28.0157 13.7001 30.8933 10.9081 31.0308 7.4121H32.346C32.7801 7.4121 33.132 7.06019 33.132 6.6261C33.132 6.192 32.7801 5.8401 32.346 5.8401H30.905C30.2981 2.85036 27.6548 0.600098 24.486 0.600098C21.3172 0.600098 18.6739 2.85036 18.067 5.8401H15.185ZM3.78805 7.15C3.78805 4.40073 6.01678 2.172 8.76605 2.172C11.5153 2.172 13.7441 4.40073 13.7441 7.15C13.7441 9.89927 11.5153 12.128 8.76605 12.128C6.01678 12.128 3.78805 9.89927 3.78805 7.15ZM19.508 7.15C19.508 4.40073 21.7367 2.172 24.486 2.172C27.2352 2.172 29.464 4.40073 29.464 7.15C29.464 9.89927 27.2352 12.128 24.486 12.128C21.7367 12.128 19.508 9.89927 19.508 7.15Z" fill="black"/>
</svg>
