<svg width="39" height="39" viewBox="0 0 39 39" fill="none" xmlns="http://www.w3.org/2000/svg">
<path d="M11.7913 16.2927C11.7913 12.197 15.1115 8.87685 19.2072 8.87685V8.87685V8.87685C23.3028 8.87685 26.623 12.197 26.623 16.2927V19.1945L30.3265 24.1325C30.4146 24.25 30.3803 24.4181 30.2531 24.4917V24.4917C23.4198 28.4452 14.9945 28.4452 8.16118 24.4917V24.4917C8.03404 24.4181 7.99972 24.25 8.08785 24.1325L11.7913 19.1945V16.2927Z" stroke="#5E5E5E" stroke-opacity="0.6" stroke-width="2.37665" stroke-linejoin="round"/>
<path d="M23.3987 27.1746V27.8195C23.3987 29.9564 21.6665 31.6886 19.5296 31.6886C17.3927 31.6886 15.6605 29.9564 15.6605 27.8195V27.1746" stroke="#5E5E5E" stroke-opacity="0.6" stroke-width="2.37665"/>
<path d="M20.9805 8.87685V7.78866C20.9805 6.98733 20.3309 6.33773 19.5296 6.33773C18.7283 6.33773 18.0787 6.98733 18.0787 7.78866V8.87685" stroke="#5E5E5E" stroke-opacity="0.6" stroke-width="2.37665"/>
</svg>
