<svg width="22" height="21" viewBox="0 0 22 21" fill="none" xmlns="http://www.w3.org/2000/svg">
<path d="M21.4924 19.5822C19.8718 16.7816 17.3274 14.8165 14.371 13.9831C15.8084 13.2524 16.9578 12.059 17.6339 10.5952C18.3099 9.13141 18.4733 7.48257 18.0977 5.91455C17.722 4.34653 16.8292 2.95073 15.5632 1.95221C14.2972 0.953687 12.7318 0.410645 11.1194 0.410645C9.50703 0.410645 7.94163 0.953687 6.67563 1.95221C5.40963 2.95073 4.51682 4.34653 4.14116 5.91455C3.7655 7.48257 3.92889 9.13141 4.60498 10.5952C5.28106 12.059 6.43044 13.2524 7.86779 13.9831C4.91139 14.8155 2.36708 16.7806 0.746392 19.5822C0.70189 19.6522 0.672008 19.7305 0.658545 19.8123C0.645082 19.8942 0.648316 19.9779 0.668051 20.0585C0.687786 20.1391 0.723616 20.2148 0.773384 20.2812C0.823152 20.3475 0.885831 20.4032 0.957648 20.4447C1.02947 20.4862 1.10894 20.5127 1.19129 20.5227C1.27363 20.5327 1.35715 20.526 1.43682 20.5029C1.51649 20.4798 1.59066 20.4408 1.65487 20.3883C1.71908 20.3357 1.772 20.2708 1.81045 20.1973C3.77967 16.7949 7.25888 14.7642 11.1194 14.7642C14.98 14.7642 18.4592 16.7949 20.4284 20.1973C20.4668 20.2708 20.5198 20.3357 20.584 20.3883C20.6482 20.4408 20.7223 20.4798 20.802 20.5029C20.8817 20.526 20.9652 20.5327 21.0476 20.5227C21.1299 20.5127 21.2094 20.4862 21.2812 20.4447C21.353 20.4032 21.4157 20.3475 21.4655 20.2812C21.5152 20.2148 21.5511 20.1391 21.5708 20.0585C21.5905 19.9779 21.5938 19.8942 21.5803 19.8123C21.5668 19.7305 21.5369 19.6522 21.4924 19.5822ZM5.17382 7.58849C5.17382 6.41256 5.52252 5.26304 6.17583 4.28529C6.82914 3.30754 7.75772 2.54548 8.84413 2.09547C9.93055 1.64546 11.126 1.52772 12.2793 1.75713C13.4327 1.98654 14.4921 2.55281 15.3236 3.38431C16.1551 4.21582 16.7214 5.27523 16.9508 6.42856C17.1802 7.58189 17.0624 8.77736 16.6124 9.86377C16.1624 10.9502 15.4004 11.8788 14.4226 12.5321C13.4449 13.1854 12.2953 13.5341 11.1194 13.5341C9.54313 13.5322 8.03195 12.9052 6.91734 11.7906C5.80273 10.676 5.17571 9.16478 5.17382 7.58849Z" fill="#505050"/>
</svg>
