<svg width="39" height="39" viewBox="0 0 39 39" fill="none" xmlns="http://www.w3.org/2000/svg">
<rect x="15.7372" y="14.7737" width="8.99267" height="8.99267" rx="4.49633" stroke="#5E5E5E" stroke-opacity="0.6" stroke-width="2.71026" stroke-linejoin="round"/>
<path fill-rule="evenodd" clip-rule="evenodd" d="M31.4584 13.5686L30.6264 12.1248C29.9225 10.9032 28.3627 10.4818 27.1394 11.1827V11.1827C26.5571 11.5258 25.8623 11.6231 25.2082 11.4532C24.5541 11.2834 23.9943 10.8603 23.6525 10.2774C23.4326 9.90681 23.3144 9.48475 23.3099 9.05387V9.05387C23.3297 8.36306 23.0691 7.69363 22.5874 7.19808C22.1057 6.70254 21.4439 6.42308 20.7528 6.42336H19.0766C18.3996 6.42335 17.7504 6.69315 17.2728 7.17305C16.7952 7.65296 16.5285 8.3034 16.5318 8.98046V8.98046C16.5117 10.3784 15.3727 11.501 13.9747 11.5009C13.5438 11.4964 13.1217 11.3782 12.7512 11.1583V11.1583C11.5279 10.4573 9.96807 10.8788 9.26422 12.1004L8.37107 13.5686C7.66807 14.7886 8.08376 16.3475 9.30092 17.0555V17.0555C10.0921 17.5123 10.5795 18.3565 10.5795 19.27C10.5795 20.1836 10.0921 21.0278 9.30092 21.4845V21.4845C8.0853 22.1878 7.66916 23.7429 8.37107 24.9593V24.9593L9.21528 26.4152C9.54506 27.0103 10.0984 27.4494 10.7528 27.6354C11.4072 27.8214 12.1088 27.7389 12.7022 27.4062V27.4062C13.2856 27.0658 13.9808 26.9726 14.6333 27.1472C15.2858 27.3218 15.8415 27.7498 16.1769 28.3361C16.3969 28.7067 16.5151 29.1287 16.5195 29.5596V29.5596C16.5195 30.9718 17.6644 32.1167 19.0766 32.1167H20.7528C22.1603 32.1167 23.3032 30.9793 23.3099 29.5718V29.5718C23.3066 28.8926 23.575 28.2403 24.0553 27.7601C24.5355 27.2798 25.1878 27.0115 25.867 27.0147C26.2969 27.0262 26.7172 27.1439 27.0905 27.3573V27.3573C28.3106 28.0603 29.8694 27.6446 30.5775 26.4275V26.4275L31.4584 24.9593C31.7993 24.374 31.8929 23.6769 31.7184 23.0225C31.5439 22.368 31.1156 21.8101 30.5285 21.4723V21.4723C29.9414 21.1345 29.5131 20.5766 29.3386 19.9222C29.1641 19.2677 29.2577 18.5706 29.5987 17.9854C29.8204 17.5982 30.1414 17.2772 30.5285 17.0555V17.0555C31.7384 16.3479 32.1531 14.7981 31.4584 13.5808V13.5808V13.5686Z" stroke="#5E5E5E" stroke-opacity="0.6" stroke-width="2.71026" stroke-linecap="round" stroke-linejoin="round"/>
</svg>
